<svg width="18" height="18" fill="none" xmlns="http://www.w3.org/2000/svg"><path d="M10.458 4.667c2.016 0 2.875.86 2.875 2.875h1.917c0-3.091-1.701-4.792-4.792-4.792v1.917zm3.28 5.216a.96.96 0 0 0-1.333.041l-2.294 2.358c-.552-.105-1.661-.45-2.804-1.59-1.142-1.144-1.488-2.256-1.59-2.804l2.356-2.295a.958.958 0 0 0 .041-1.333L4.574.367A.958.958 0 0 0 3.24.283L1.16 2.067a.958.958 0 0 0-.277.622c-.015.24-.289 5.914 4.112 10.317 3.839 3.838 8.648 4.119 9.972 4.119.194 0 .313-.006.344-.008a.95.95 0 0 0 .621-.279l1.783-2.08a.958.958 0 0 0-.083-1.333l-3.894-3.542z" fill="#BDBDBD"/></svg>